<svg width="85" height="80" viewBox="0 0 85 80" fill="none" xmlns="http://www.w3.org/2000/svg">
<ellipse cx="42.5" cy="40" rx="42.5" ry="40" fill="#D9D9D9"/>
<path d="M51.2898 30.7273C51.0767 28.928 50.2126 27.5312 48.6974 26.5369C47.1823 25.5426 45.3239 25.0455 43.1222 25.0455C41.5123 25.0455 40.1037 25.3059 38.8963 25.8267C37.7008 26.3475 36.7656 27.0637 36.0909 27.9751C35.428 28.8866 35.0966 29.9223 35.0966 31.0824C35.0966 32.053 35.3274 32.8875 35.7891 33.5859C36.2625 34.2725 36.8662 34.8466 37.6001 35.3082C38.334 35.758 39.1035 36.1309 39.9084 36.4268C40.7133 36.7109 41.4531 36.9418 42.1278 37.1193L45.821 38.1136C46.768 38.3622 47.8215 38.7055 48.9815 39.1435C50.1534 39.5814 51.272 40.1792 52.3374 40.9368C53.4145 41.6825 54.3023 42.6413 55.0007 43.8132C55.6991 44.9851 56.0483 46.4233 56.0483 48.1278C56.0483 50.0928 55.5334 51.8684 54.5036 53.4545C53.4856 55.0407 51.9941 56.3014 50.0291 57.2365C48.076 58.1716 45.7027 58.6392 42.9091 58.6392C40.3049 58.6392 38.05 58.219 36.1442 57.3786C34.2502 56.5381 32.7588 55.3662 31.6697 53.8629C30.5926 52.3596 29.983 50.6136 29.8409 48.625H34.3864C34.5047 49.9981 34.9664 51.1345 35.7713 52.0341C36.5881 52.9219 37.6179 53.5848 38.8608 54.0227C40.1155 54.4489 41.465 54.6619 42.9091 54.6619C44.59 54.6619 46.0992 54.3897 47.4368 53.8452C48.7744 53.2888 49.8338 52.5194 50.6151 51.5369C51.3963 50.5426 51.7869 49.3826 51.7869 48.0568C51.7869 46.8494 51.4496 45.867 50.7749 45.1094C50.1001 44.3518 49.2124 43.7363 48.1115 43.2628C47.0107 42.7893 45.821 42.375 44.5426 42.0199L40.0682 40.7415C37.2273 39.9247 34.9782 38.7588 33.321 37.2436C31.6638 35.7285 30.8352 33.7457 30.8352 31.2955C30.8352 29.2595 31.3857 27.4839 32.4865 25.9688C33.5992 24.4418 35.0907 23.258 36.9609 22.4176C38.843 21.5653 40.9441 21.1392 43.2642 21.1392C45.608 21.1392 47.6913 21.5594 49.5142 22.3999C51.3371 23.2285 52.7813 24.3648 53.8466 25.8089C54.9238 27.2531 55.492 28.8925 55.5511 30.7273H51.2898Z" fill="black"/>
<path d="M37.642 52V30.1818H45.2699C46.7898 30.1818 48.0433 30.4446 49.0305 30.9702C50.0178 31.4886 50.7528 32.1882 51.2358 33.0689C51.7188 33.9425 51.9602 34.9119 51.9602 35.9773C51.9602 36.9148 51.7933 37.6889 51.4595 38.2997C51.1328 38.9105 50.6996 39.3935 50.1598 39.7486C49.6271 40.1037 49.0483 40.3665 48.4233 40.5369V40.75C49.0909 40.7926 49.7621 41.027 50.4368 41.4531C51.1115 41.8793 51.6761 42.4901 52.1307 43.2855C52.5852 44.081 52.8125 45.054 52.8125 46.2045C52.8125 47.2983 52.5639 48.282 52.0668 49.1555C51.5696 50.0291 50.7848 50.7216 49.7124 51.233C48.6399 51.7443 47.2443 52 45.5256 52H37.642ZM40.2841 49.6562H45.5256C47.2514 49.6562 48.4766 49.3224 49.201 48.6548C49.9325 47.9801 50.2983 47.1634 50.2983 46.2045C50.2983 45.4659 50.1101 44.7841 49.7337 44.1591C49.3572 43.527 48.821 43.0227 48.125 42.6463C47.429 42.2628 46.6051 42.071 45.6534 42.071H40.2841V49.6562ZM40.2841 39.7699H45.1847C45.9801 39.7699 46.6974 39.6136 47.3366 39.3011C47.983 38.9886 48.4943 38.5483 48.8707 37.9801C49.2543 37.4119 49.446 36.7443 49.446 35.9773C49.446 35.0185 49.1122 34.2053 48.4446 33.5376C47.777 32.8629 46.7188 32.5256 45.2699 32.5256H40.2841V39.7699Z" fill="black"/>
<path d="M15.5 23L17.1839 28.1824H22.6329L18.2245 31.3853L19.9084 36.5676L15.5 33.3647L11.0916 36.5676L12.7755 31.3853L8.36708 28.1824H13.8161L15.5 23Z" fill="black"/>
<path d="M42.5 5L44.1839 10.1824H49.6329L45.2245 13.3853L46.9084 18.5676L42.5 15.3647L38.0916 18.5676L39.7755 13.3853L35.3671 10.1824H40.8161L42.5 5Z" fill="black"/>
<path d="M68.5 23L70.1839 28.1824H75.6329L71.2245 31.3853L72.9084 36.5676L68.5 33.3647L64.0916 36.5676L65.7755 31.3853L61.3671 28.1824H66.8161L68.5 23Z" fill="black"/>
<path d="M22.5 52L24.1839 57.1824H29.6329L25.2245 60.3853L26.9084 65.5676L22.5 62.3647L18.0916 65.5676L19.7755 60.3853L15.3671 57.1824H20.8161L22.5 52Z" fill="black"/>
<path d="M62.5 52L64.1839 57.1824H69.6329L65.2245 60.3853L66.9084 65.5676L62.5 62.3647L58.0916 65.5676L59.7755 60.3853L55.3671 57.1824H60.8161L62.5 52Z" fill="black"/>
</svg>
